<svg width="104" height="30" viewBox="0 0 104 30" fill="none" xmlns="http://www.w3.org/2000/svg">
<g id="Frame">
<path id="Vector" fill-rule="evenodd" clip-rule="evenodd" d="M6.07116 0.599705C3.96866 1.47877 1.66678 3.95283 0.941784 7.06127C0.0174088 10.9944 3.85085 12.6528 4.16804 12.1091C4.53053 11.4747 3.47929 11.2572 3.26179 9.20908C2.98991 6.58095 4.21335 3.62658 5.75397 2.33971C6.04397 2.09502 6.02585 2.43033 6.02585 3.04658L5.97147 16.151C5.97147 18.9603 5.85366 19.8394 5.64522 20.7185C5.43678 21.6066 5.10147 22.2047 5.34616 22.4403C5.63616 22.6941 6.86866 22.0778 7.57553 21.081C8.3832 19.849 8.80304 18.4033 8.78085 16.9303C8.84429 15.0635 8.83522 12.1 8.84429 10.4144C8.84429 8.87377 8.87147 4.33346 8.81709 1.60564C8.79897 0.935018 6.94116 0.237205 6.07116 0.608768V0.599705ZM80.5015 13.7222C80.4725 14.8979 80.201 16.0549 79.704 17.1206C78.9337 18.6794 77.3205 19.1597 76.6318 16.9213C76.2693 15.7069 76.2421 13.6678 76.514 11.9641C76.7859 10.2422 77.5471 8.92814 78.8068 9.04596C80.0574 9.16377 80.6374 10.7678 80.5015 13.7222ZM59.5218 22.7666C59.5037 25.1863 59.123 27.3069 58.3074 27.9322C57.1383 28.8022 55.5887 28.1406 55.9058 26.3735C56.1868 24.8147 57.5371 23.2197 59.5308 21.2622L59.5218 22.7666ZM59.2046 13.7041C59.1516 14.8823 58.8812 16.0407 58.4071 17.1206C57.6368 18.6794 56.0146 19.1597 55.3349 16.9213C54.8818 15.3897 54.9905 13.4141 55.2171 12.1635C55.5162 10.5503 56.2321 9.04596 57.5099 9.04596C58.7605 9.04596 59.3768 10.4053 59.2046 13.7041ZM47.0518 13.686C47.0288 14.8759 46.7604 16.0483 46.2633 17.1297C45.4658 18.6703 43.8799 19.1597 43.1821 16.9213C42.6837 15.3172 42.8558 13.115 43.0643 11.9369C43.3724 10.1697 44.1518 8.92814 45.3571 9.03689C46.6077 9.16377 47.2058 10.7588 47.0518 13.686ZM102.741 15.3263C102.442 15.3263 102.297 15.6435 102.188 16.1691C101.789 17.9997 101.372 18.4166 100.829 18.4166C100.231 18.4166 99.6868 17.5103 99.5418 15.6978C99.433 14.266 99.4512 11.6378 99.5962 9.01877C99.6234 8.48408 99.4693 7.95845 98.0283 7.43283C97.4121 7.20627 96.5058 6.87095 96.0618 7.95845C95.1644 10.0277 94.5311 12.2016 94.1768 14.4291C94.1768 14.4835 94.1043 14.4925 94.0862 14.3747C94.0227 13.5863 93.8505 12.1453 93.8324 9.12752C93.8324 8.53846 93.7055 8.04002 93.053 7.63221C92.6271 7.36033 91.3493 6.89814 90.878 7.45096C90.4883 7.90408 90.0262 9.14564 89.5458 10.6047L88.8752 12.5985L88.8843 8.17596C88.8843 7.72283 88.5762 7.56877 88.4765 7.54158C87.9448 7.37758 87.3985 7.26529 86.8452 7.20627C86.4102 7.20627 86.3015 7.45095 86.3015 7.81345C86.3015 7.85877 86.229 12.0275 86.229 14.9456V15.3625C85.9843 16.7038 85.1958 18.5253 84.3349 18.5253C83.474 18.5253 83.0662 17.7641 83.0662 14.2841C83.0662 12.2541 83.1296 11.375 83.1568 9.90689C83.1749 9.05502 83.2112 8.41158 83.2112 8.26658C83.2021 7.81345 82.4227 7.58689 82.0602 7.49627C81.6977 7.41471 81.3715 7.37845 81.1268 7.39658C80.7643 7.4147 80.5196 7.64127 80.5196 7.95845V8.45689C80.1285 7.83828 79.5462 7.36418 78.8612 7.10658C77.5562 6.71689 76.1968 7.06127 75.1727 8.49314C74.2888 9.75758 73.7685 11.2402 73.6684 12.7797C73.5234 14.1391 73.5777 15.5075 73.8224 16.6766C73.5233 17.9816 72.9524 18.5253 72.3362 18.5253C71.439 18.5253 70.7955 17.0572 70.868 14.5378C70.9224 12.8703 71.2487 11.7013 71.6112 10.0156C71.7652 9.29064 71.6474 8.92814 71.3302 8.56564C71.0402 8.23033 70.424 8.05814 69.5268 8.26658C68.8924 8.41158 67.9862 8.57471 67.1705 8.69252C67.1705 8.69252 67.2158 8.5022 67.2612 8.14877C67.4696 6.30908 65.4668 6.45408 64.8233 7.04314C64.4427 7.39658 64.189 7.80439 64.0802 8.55658C63.9262 9.7347 64.8959 10.2875 64.8959 10.2875C64.2731 12.6398 63.2291 14.8598 61.8146 16.8397V16.2053C61.8055 13.1603 61.8418 10.7678 61.8599 9.90689C61.878 9.05502 61.9143 8.42971 61.9143 8.27564C61.9143 7.94939 61.7149 7.82252 61.3162 7.66846C60.9537 7.52346 60.5368 7.43283 60.1018 7.39658C59.558 7.35127 59.2227 7.64127 59.2318 7.98564V8.45689C58.8389 7.8363 58.253 7.3619 57.5643 7.10658C56.2593 6.71689 54.8999 7.06127 53.8758 8.49314C53.0236 9.77024 52.5062 11.2412 52.3715 12.7706C52.2355 14.1935 52.2537 15.3988 52.453 16.4319C52.2446 17.456 51.6465 18.5163 50.9758 18.5163C50.1149 18.5163 49.6165 17.7641 49.6165 14.2841C49.6165 12.2541 49.6799 11.375 49.7071 9.90689C49.7252 9.05502 49.7615 8.41158 49.7615 8.26658C49.7615 7.81345 48.973 7.58689 48.6105 7.49627C48.2299 7.40564 47.8946 7.37846 47.6499 7.40564C47.3146 7.42377 47.079 7.72283 47.079 7.94939V8.45689C46.686 7.8363 46.1002 7.3619 45.4115 7.10658C44.1065 6.71689 42.7562 7.07033 41.723 8.49314C41.0434 9.42658 40.4996 10.4597 40.2187 12.7525C40.1426 13.3658 40.1062 13.9833 40.1099 14.6013C39.838 16.2416 38.6508 18.1356 37.6812 18.1356C37.1102 18.1356 36.5665 17.0391 36.5665 14.6919C36.5665 11.5653 36.7658 7.11564 36.793 6.6897L38.2612 6.66252C38.8774 6.66252 39.4302 6.67158 40.2458 6.62627C40.6537 6.60814 41.0433 5.14002 40.6265 4.95877C40.4362 4.87721 39.0858 4.80471 38.5421 4.79564C38.089 4.78658 36.8383 4.69596 36.8383 4.69596C36.8383 4.69596 36.9562 1.74158 36.9833 1.43346C37.0015 1.16158 36.6662 1.03471 36.4668 0.953143C36.0195 0.773102 35.5548 0.639485 35.0802 0.554393C34.3915 0.418455 34.0834 0.554393 34.0199 1.13439C33.9293 2.01346 33.884 4.59627 33.884 4.59627C33.3765 4.59627 31.6455 4.49658 31.1471 4.49658C30.6758 4.49658 30.1683 6.50845 30.8208 6.53564L33.7208 6.61721L33.6937 12.535V12.961C33.2133 15.435 31.5458 16.7672 31.5458 16.7672C31.9083 15.136 31.1652 13.9125 29.8512 12.8703C29.3618 12.4897 28.4012 11.7647 27.3227 10.9672C27.3227 10.9672 27.948 10.351 28.5008 9.11845C28.8905 8.24846 28.9087 7.25158 27.948 7.03408C26.3621 6.66252 25.048 7.82252 24.6583 9.07314C24.5063 9.47798 24.4681 9.91677 24.548 10.3418C24.6279 10.7668 24.8228 11.1618 25.1115 11.4838L25.2474 11.656C24.8849 12.3447 24.3955 13.2691 23.9787 13.9941C22.8277 15.9878 21.9487 17.5738 21.2871 17.5738C20.7615 17.5738 20.7705 15.9697 20.7705 14.4653C20.7705 13.1694 20.8612 11.221 20.9427 9.20908C20.9699 8.53846 20.6346 8.15783 20.0727 7.81345C19.6259 7.50438 19.1198 7.29145 18.5865 7.18814C17.9521 7.18814 16.1396 7.27877 14.4177 12.236C14.2093 12.8613 13.7833 13.9941 13.7833 13.9941L13.8196 8.04002C13.8196 7.89502 13.7471 7.76814 13.5749 7.67752C13.0341 7.39001 12.4374 7.22306 11.8258 7.18814C11.4996 7.18814 11.3365 7.34221 11.3365 7.64127L11.273 16.9756C11.273 17.6825 11.2912 18.5072 11.3637 18.8697C11.4362 19.2322 11.5449 19.5222 11.6899 19.6944C11.8258 19.8756 11.989 20.0025 12.2518 20.0569C12.5055 20.1113 13.8649 20.2835 13.9374 19.7669C14.028 19.1416 14.028 18.471 14.744 15.9606C15.8496 12.0547 17.2996 10.1425 17.9883 9.47189C18.1062 9.34502 18.2421 9.34502 18.233 9.53533L18.0337 14.3566C17.8524 19.2231 18.7405 20.1203 20.0002 20.1203C20.9699 20.1203 22.3383 19.1597 23.8065 16.731L26.2533 12.6528L27.6852 13.976C28.8452 15.0635 29.2258 16.1147 28.9721 17.1025C28.7818 17.8547 28.0477 18.6431 26.7608 17.8819C26.3802 17.6553 26.2171 17.4831 25.8455 17.2385C25.6371 17.1025 25.329 17.0572 25.1387 17.2022C24.6583 17.5647 24.3774 18.036 24.2233 18.6069C24.0693 19.1597 24.6312 19.4588 25.2112 19.7125C25.7096 19.9391 26.788 20.1385 27.4768 20.1656C30.1412 20.2563 32.2799 18.8788 33.7662 15.3263C34.038 18.3894 35.1708 20.1294 37.1374 20.1294C38.4515 20.1294 39.7746 18.4256 40.3546 16.7581C40.5177 17.4378 40.7624 18.0269 41.0796 18.5344C42.6021 20.936 45.5474 20.4103 47.0246 18.3713C47.4777 17.746 47.5502 17.5194 47.5502 17.5194C47.5945 18.2055 47.8912 18.851 48.3832 19.3313C48.8752 19.8115 49.5276 20.0926 50.2146 20.1203C51.2115 20.1203 52.2355 19.6491 52.9605 18.0269C53.0421 18.2081 53.1418 18.3713 53.2324 18.5344C54.7549 20.936 57.7002 20.4103 59.1774 18.3713L59.3587 18.1175L59.404 19.3863L58.0446 20.6278C55.7608 22.7122 54.0208 24.2981 53.894 26.1469C53.7308 28.5031 55.643 29.3731 57.093 29.491C57.8183 29.527 58.54 29.3688 59.1837 29.0327C59.8273 28.6965 60.3695 28.1946 60.7543 27.5788C61.4612 26.5366 61.9324 24.2891 61.8962 22.0688L61.8418 18.8425C64.0126 16.3323 65.6802 13.4278 66.7537 10.2875C66.7537 10.2875 67.5965 10.2966 68.4937 10.2422C68.7837 10.2241 68.8652 10.2785 68.8109 10.4869C68.7474 10.7406 67.678 14.8731 68.6568 17.6281C69.3274 19.5131 70.8318 20.1203 71.738 20.1203C72.7802 20.1203 73.7862 19.3319 74.3208 18.1538L74.5293 18.5344C76.0518 20.936 78.988 20.4103 80.4743 18.3713C80.8096 17.9181 80.9999 17.5194 80.9999 17.5194C81.3262 19.5131 82.8758 20.1294 83.764 20.1294C84.6883 20.1294 85.5765 19.7488 86.2833 18.0631C86.3105 18.8063 86.3558 19.4135 86.4283 19.6038C86.4737 19.7216 86.7365 19.8756 86.9359 19.9391C87.7787 20.2472 88.6396 20.1022 88.9658 20.0388C89.1833 19.9935 89.3555 19.8122 89.3827 19.3591C89.4462 18.1538 89.4099 16.1328 89.7724 14.6375C90.3796 12.1091 90.9505 11.1303 91.2224 10.65C91.3765 10.3781 91.5487 10.3328 91.5577 10.6228C91.5668 11.2028 91.594 12.9066 91.8296 15.1994C92.0108 16.885 92.2465 17.8819 92.4187 18.19C92.9352 19.0963 93.5696 19.1416 94.0771 19.1416C94.4033 19.1416 95.0921 19.051 95.0287 18.48C95.0015 18.1991 95.0468 16.4681 95.663 13.985C96.0527 12.3628 96.7052 10.9038 96.9408 10.36C97.0315 10.1697 97.0768 10.3238 97.0768 10.36C97.0224 11.4656 96.9137 15.1178 97.3668 17.1206C97.983 19.8213 99.7683 20.1294 100.394 20.1294C101.726 20.1294 102.813 19.1144 103.176 16.4591C103.266 15.8247 103.131 15.3263 102.741 15.3263Z" fill="#262626"/>
</g>
</svg>
